<svg width="28" height="28" viewBox="0 0 28 28" fill="none" xmlns="http://www.w3.org/2000/svg">
<g id="Service_CLine" clip-path="url(#clip0_42_1211)">
<g id="Layer 2">
<g id="art">
<path id="Vector" d="M13.9998 25.2001C20.1854 25.2001 25.1998 20.1856 25.1998 14C25.1998 7.81446 20.1854 2.80005 13.9998 2.80005C7.81422 2.80005 2.7998 7.81446 2.7998 14C2.7998 20.1856 7.81422 25.2001 13.9998 25.2001Z" fill="#58A738"/>
<path id="Vector_2" d="M18.6534 11.5767H16.1587C15.9108 10.5505 15.256 9.78927 14.0354 9.78927C13.3631 9.78927 12.8143 10.0372 12.4604 10.4441C12.0005 10.9749 11.8411 11.5942 11.8411 14.0009C11.8411 16.4077 12.0005 17.0265 12.4604 17.5573C12.8143 17.9642 13.3631 18.2121 14.0354 18.2121C15.256 18.2121 15.9108 17.4514 16.1587 16.4247H18.6534C18.2111 19.0614 16.3886 20.4059 14.0354 20.4059C12.5843 20.4059 11.5227 19.9286 10.6554 19.0789C9.39934 17.8227 9.38184 16.4072 9.38184 14C9.38184 11.5927 9.39934 10.1777 10.6554 8.92157C11.5227 8.07233 12.5843 7.59448 14.0354 7.59448C16.3886 7.59545 18.2111 8.94004 18.6534 11.5767Z" fill="white"/>
</g>
</g>
</g>
<defs>
<clipPath id="clip0_42_1211">
<rect width="28" height="28" fill="white"/>
</clipPath>
</defs>
</svg>
