<svg width="28" height="28" viewBox="0 0 28 28" fill="none" xmlns="http://www.w3.org/2000/svg">
<g id="Service_Bus">
<g id="Layer_2_00000174591246434243620840000016490781031955068814_">
<g id="Layer_1-2_00000081631213385630878780000005891401379773483192_">
<path id="Vector" d="M5.79292 19.3104V19.7663L6.38966 19.9138C6.55729 19.9473 10.4127 20.7721 14.0065 20.7721C16.5611 20.7586 19.1157 20.477 21.61 19.9205L22.2067 19.7529V14.4157C24.1377 14.1207 24.1377 12.0288 24.1377 10.7414C24.1377 10.4933 24.0372 10.2586 23.8561 10.0977C23.5879 9.84294 23.1454 9.69543 22.5017 9.6485C22.4012 9.64179 22.3006 9.63509 22.2134 9.63509V7.27493C22.2134 6.14179 21.1138 5.31708 18.9414 4.83432C16.9433 4.38509 14.6569 4.35156 13.9998 4.35156C13.3427 4.35156 11.063 4.38509 9.06495 4.83432C6.89924 5.32378 5.79963 6.14179 5.79963 7.27493V9.63509C5.71246 9.63509 5.61189 9.64179 5.51131 9.6485C4.86763 9.70214 4.42511 9.84965 4.15691 10.0977C3.97587 10.2654 3.86859 10.5 3.8753 10.7414C3.8753 12.0288 3.8753 14.1207 5.80633 14.4157V19.3104H5.79292ZM8.20671 18.8276C7.67032 18.8276 7.2412 18.3985 7.2412 17.8621C7.2412 17.3257 7.67032 16.8966 8.20671 16.8966C8.73641 16.8966 9.17223 17.3257 9.17223 17.8621C9.17223 18.3918 8.74311 18.8276 8.20671 18.8276ZM19.7929 18.8276C19.2565 18.8276 18.8274 18.3918 18.8274 17.8621C18.8274 17.3257 19.2632 16.8966 19.7929 16.8966C20.3226 16.8966 20.7584 17.3257 20.7584 17.8621C20.7584 18.3918 20.3293 18.8276 19.7929 18.8276ZM11.1033 5.79313H16.8964C17.1646 5.79313 17.3791 6.00769 17.3791 6.27589C17.3791 6.54409 17.1646 6.75865 16.8964 6.75865H11.1033C10.8351 6.75865 10.6205 6.54409 10.6205 6.27589C10.6205 6.00769 10.8351 5.79313 11.1033 5.79313ZM6.75844 8.20693H21.2479C21.2479 8.21363 21.2479 8.21363 21.2479 8.22034C21.2479 8.28068 21.2412 8.34773 21.2412 8.41478V13.9129C21.2412 14.5565 20.4299 15.4483 19.8399 15.4483H8.21342C7.58986 15.4483 6.75844 14.6102 6.75844 13.9799V8.34103C6.75844 8.3008 6.75844 8.25386 6.75844 8.20693Z" fill="black"/>
<path id="Vector_2" d="M21.8581 20.8525L21.8447 20.8592C21.6972 20.8928 18.2374 21.7443 14.0066 21.7443C10.2451 21.7443 6.34278 20.8995 6.18186 20.8659H6.16845L5.79297 20.7721V22.6964C5.79297 22.9646 6.00753 23.1792 6.27573 23.1792H6.75849V24.6274C6.75849 25.1571 7.16749 25.593 7.67036 25.593H8.74316C9.24603 25.593 9.65504 25.1571 9.65504 24.6274V23.1792H18.3447V24.6274C18.3447 25.1571 18.7537 25.593 19.2566 25.593H20.3294C20.8322 25.593 21.2412 25.1571 21.2412 24.6274V23.1792H21.724C21.9922 23.1792 22.2068 22.9646 22.2068 22.6964V20.7587L21.8581 20.8525Z" fill="black"/>
</g>
</g>
</g>
</svg>
