<svg width="27" height="26" viewBox="0 0 27 26" fill="none" xmlns="http://www.w3.org/2000/svg">
<g id="Frame">
<path id="Vector" d="M13.3328 23.8333C19.3159 23.8333 24.1662 18.983 24.1662 13C24.1662 7.01687 19.3159 2.16663 13.3328 2.16663C7.34976 2.16663 2.49951 7.01687 2.49951 13C2.49951 18.983 7.34976 23.8333 13.3328 23.8333Z" stroke="black" stroke-width="1.5" stroke-linecap="round" stroke-linejoin="round"/>
<path id="Vector_2" d="M7.9165 9.75L13.3332 10.8333M13.3332 10.8333L18.7498 9.75M13.3332 10.8333V14.0833M13.3332 14.0833L11.1665 19.5M13.3332 14.0833L15.4998 19.5" stroke="black" stroke-width="1.5" stroke-linecap="round" stroke-linejoin="round"/>
<path id="Vector_3" d="M13.3332 7.58333C13.0341 7.58333 12.7915 7.34082 12.7915 7.04167C12.7915 6.74251 13.0341 6.5 13.3332 6.5C13.6323 6.5 13.8748 6.74251 13.8748 7.04167C13.8748 7.34082 13.6323 7.58333 13.3332 7.58333Z" fill="black" stroke="black" stroke-width="1.5" stroke-linecap="round" stroke-linejoin="round"/>
</g>
</svg>
