<?xml version="1.0" encoding="UTF-8" standalone="no"?>
<!-- Generator: Adobe Illustrator 28.2.0, SVG Export Plug-In . SVG Version: 6.00 Build 0)  -->

<svg
   version="1.1"
   x="0px"
   y="0px"
   viewBox="0 0 450 450"
   xml:space="preserve"
   id="svg17"
   sodipodi:docname="Elevator_3454f569-0336-48f5-891b-09b320b0a4aa.svg"
   inkscape:export-filename="elevator_icon.svg"
   inkscape:export-xdpi="96"
   inkscape:export-ydpi="96"
   width="450"
   height="450"
   inkscape:version="1.3 (0e150ed6c4, 2023-07-21)"
   xmlns:inkscape="http://www.inkscape.org/namespaces/inkscape"
   xmlns:sodipodi="http://sodipodi.sourceforge.net/DTD/sodipodi-0.dtd"
   xmlns="http://www.w3.org/2000/svg"
   xmlns:svg="http://www.w3.org/2000/svg"><defs
   id="defs17" /><sodipodi:namedview
   id="namedview17"
   pagecolor="#ffffff"
   bordercolor="#000000"
   borderopacity="0.25"
   inkscape:showpageshadow="2"
   inkscape:pageopacity="0.0"
   inkscape:pagecheckerboard="0"
   inkscape:deskcolor="#d1d1d1"
   showguides="true"
   inkscape:zoom="1.0251736"
   inkscape:cx="197.52752"
   inkscape:cy="337.99153"
   inkscape:window-width="2560"
   inkscape:window-height="1377"
   inkscape:window-x="3832"
   inkscape:window-y="1321"
   inkscape:window-maximized="1"
   inkscape:current-layer="svg17" />&#10;<style
   type="text/css"
   id="style1">&#10;	.st0{fill:#FFFFFF;}&#10;</style>&#10;<g
   id="Layer_1">&#10;</g>&#10;<g
   id="art"
   transform="translate(-63,-63)">&#10;	<rect
   width="576"
   height="576"
   id="rect1"
   style="fill:none"
   x="0"
   y="0" />&#10;	<g
   id="Elevator_2_">&#10;		<g
   id="g17">&#10;			<g
   id="g1">&#10;				&#10;			</g>&#10;			<g
   id="g16">&#10;				<path
   class="st0"
   d="m 432.1,442.3 c 0,10.2 -8.3,18.5 -18.5,18.5 H 162.5 c -10.2,0 -18.5,-8.3 -18.5,-18.5 V 234.5 c 0,-10.2 8.3,-18.5 18.5,-18.5 h 251.1 c 10.2,0 18.5,8.3 18.5,18.5 z M 410.5,241.2 c 0,-2 -1.6,-3.6 -3.6,-3.6 H 169.3 c -2,0 -3.6,1.6 -3.6,3.6 v 194.4 c 0,2 1.6,3.6 3.6,3.6 h 237.6 c 2,0 3.6,-1.6 3.6,-3.6 z"
   id="path2"
   style="fill:#000000;fill-opacity:1"
   inkscape:export-filename=".\path2.svg"
   inkscape:export-xdpi="116.62617"
   inkscape:export-ydpi="116.62617" />&#10;				<polygon
   class="st0"
   points="273.1,173.6 244.9,145 244.9,201.7 230.3,201.7 230.3,145 202.1,173.6 202.1,154.3 237.6,118.8 273.1,154.3 "
   id="polygon2"
   style="fill:#000000;fill-opacity:1" />&#10;				<polygon
   class="st0"
   points="302.9,146.8 331.1,175.5 331.1,118.8 345.7,118.8 345.7,175.5 373.9,146.8 373.9,166.2 338.4,201.7 302.9,166.2 "
   id="polygon3"
   style="fill:#000000;fill-opacity:1" />&#10;				<g
   id="g7">&#10;					<g
   id="g6">&#10;						<path
   class="st0"
   d="m 288,342.1 c -5.3,0 -10.7,-0.5 -15.9,-1.6 V 425 c 0,3.8 3.1,7 7,7 3.8,0 7,-3.1 7,-7 v -64 0 -2.7 c 0,-1.1 0.9,-2 2,-2 0,0 0,0 0,0 1.1,0 2,0.9 2,2 v 2.7 c 0,0 0,0 0,0 v 64 c 0,3.8 3.1,7 7,7 3.9,0 7,-3.1 7,-7 v -84.6 c -5.4,1.1 -10.8,1.7 -16.1,1.7 z"
   id="path3"
   style="fill:#000000;fill-opacity:1" />&#10;						<g
   id="g5">&#10;							<g
   id="g4">&#10;								<path
   class="st0"
   d="m 320.8,342 -3,-42.5 c 0,-10.3 -9.5,-19 -22,-21 -2.3,1.4 -5,2.2 -7.9,2.2 -2.9,0 -5.6,-0.8 -7.9,-2.2 -12.5,2.1 -22,10.8 -22,21.1 0,0 0,0 0,0.1 l -3,42.4 c -0.2,3.3 2,6.1 5,6.3 3,0.2 5.7,-2.3 5.9,-5.6 l 2.6,-36.7 v 0 c 0.2,-3.1 0.3,-4 0.3,-4.1 0.2,-1.1 1.3,-1.8 2.3,-1.6 1.1,0.2 1.8,1.3 1.6,2.3 0,0.1 -0.4,1.8 -0.8,10.2 0,0 0,0 0,0 v 23.4 c 10.5,2.3 21.4,2.3 31.9,0 v -23.4 c -0.3,-8.5 -0.8,-10.1 -0.8,-10.2 -0.2,-1.1 0.5,-2.1 1.6,-2.3 1.1,-0.2 2.1,0.5 2.3,1.6 0,0.1 0.1,1 0.3,4.1 v 0 l 2.6,36.7 c 0.2,3.3 2.9,5.8 5.9,5.6 3.1,-0.2 5.4,-3.1 5.1,-6.4 z"
   id="path4"
   style="fill:#000000;fill-opacity:1" />&#10;							</g>&#10;						</g>&#10;					</g>&#10;					<path
   class="st0"
   d="m 299.9,264.1 c 0,6.9 -5.4,12.5 -12,12.5 -6.6,0 -11.9,-5.6 -11.9,-12.5 v -6.8 c 0,-6.9 5.4,-12.5 11.9,-12.5 6.6,0 12,5.6 12,12.5 z"
   id="path6"
   style="fill:#000000;fill-opacity:1" />&#10;				</g>&#10;				<g
   id="g11">&#10;					<g
   id="g10">&#10;						<path
   class="st0"
   d="m 362.7,342.1 c -5.3,0 -10.7,-0.5 -15.9,-1.6 V 425 c 0,3.8 3.1,7 7,7 3.8,0 7,-3.1 7,-7 v -64 0 -2.7 c 0,-1.1 0.9,-2 2,-2 0,0 0,0 0,0 1.1,0 2,0.9 2,2 v 2.7 c 0,0 0,0 0,0 v 64 c 0,3.8 3.1,7 7,7 3.8,0 7,-3.1 7,-7 v -84.6 c -5.4,1.1 -10.7,1.7 -16.1,1.7 z"
   id="path7"
   style="fill:#000000;fill-opacity:1" />&#10;						<g
   id="g9">&#10;							<g
   id="g8">&#10;								<path
   class="st0"
   d="m 395.6,342 -3,-42.5 c 0,-10.3 -9.5,-19 -22,-21 -2.3,1.4 -5,2.2 -7.9,2.2 -2.9,0 -5.6,-0.8 -7.9,-2.2 -12.5,2.1 -22,10.8 -22,21.1 0,0 0,0 0,0.1 l -3,42.4 c -0.2,3.3 2,6.1 5,6.3 3,0.2 5.7,-2.3 5.9,-5.6 l 2.6,-36.7 v 0 c 0.2,-3.1 0.3,-4 0.3,-4.1 0.2,-1.1 1.3,-1.8 2.3,-1.6 1.1,0.2 1.8,1.3 1.6,2.3 0,0.1 -0.4,1.8 -0.8,10.2 0,0 0,0 0,0 v 23.4 c 10.5,2.3 21.4,2.3 31.9,0 v -23.4 c -0.3,-8.5 -0.8,-10.1 -0.8,-10.2 -0.2,-1.1 0.5,-2.1 1.6,-2.3 1.1,-0.2 2.1,0.5 2.3,1.6 0,0.1 0.1,1 0.3,4.1 v 0 l 2.6,36.7 c 0.2,3.3 2.9,5.8 5.9,5.6 3,-0.2 5.3,-3.1 5.1,-6.4 z"
   id="path8"
   style="fill:#000000;fill-opacity:1" />&#10;							</g>&#10;						</g>&#10;					</g>&#10;					<path
   class="st0"
   d="m 374.7,264.1 c 0,6.9 -5.4,12.5 -12,12.5 -6.6,0 -11.9,-5.6 -11.9,-12.5 v -6.8 c 0,-6.9 5.4,-12.5 11.9,-12.5 6.6,0 12,5.6 12,12.5 z"
   id="path10"
   style="fill:#000000;fill-opacity:1" />&#10;				</g>&#10;				<g
   id="g15">&#10;					<g
   id="g14">&#10;						<path
   class="st0"
   d="m 213.3,342.1 c -5.3,0 -10.7,-0.5 -15.9,-1.6 V 425 c 0,3.8 3.1,7 7,7 3.8,0 7,-3.1 7,-7 v -64 0 -2.7 c 0,-1.1 0.9,-2 2,-2 0,0 0,0 0,0 1.1,0 2,0.9 2,2 v 2.7 c 0,0 0,0 0,0 v 64 c 0,3.8 3.1,7 7,7 3.9,0 7,-3.1 7,-7 v -84.6 c -5.4,1.1 -10.8,1.7 -16.1,1.7 z"
   id="path11"
   style="fill:#000000;fill-opacity:1" />&#10;						<g
   id="g13">&#10;							<g
   id="g12">&#10;								<path
   class="st0"
   d="m 246.2,342 -3,-42.5 c 0,-10.3 -9.5,-19 -22,-21 -2.3,1.4 -5,2.2 -7.9,2.2 -2.9,0 -5.6,-0.8 -7.9,-2.2 -12.5,2.1 -22,10.8 -22,21.1 0,0 0,0 0,0.1 l -3,42.4 c -0.2,3.3 2,6.1 5.1,6.3 3,0.2 5.6,-2.3 5.9,-5.6 l 2.6,-36.7 v 0 c 0.2,-3.1 0.3,-4 0.3,-4.1 0.2,-1.1 1.3,-1.8 2.3,-1.6 1.1,0.2 1.8,1.3 1.6,2.3 0,0.1 -0.4,1.8 -0.8,10.2 0,0 0,0 0,0 v 23.4 c 10.5,2.3 21.4,2.3 31.9,0 v -23.4 c -0.3,-8.5 -0.8,-10.1 -0.8,-10.2 -0.2,-1.1 0.5,-2.1 1.6,-2.3 1.1,-0.2 2.1,0.5 2.3,1.6 0,0.1 0.1,1 0.3,4.1 v 0 l 2.6,36.7 c 0.2,3.3 2.9,5.8 5.9,5.6 2.9,-0.2 5.2,-3.1 5,-6.4 z"
   id="path12"
   style="fill:#000000;fill-opacity:1" />&#10;							</g>&#10;						</g>&#10;					</g>&#10;					<path
   class="st0"
   d="m 225.2,264.1 c 0,6.9 -5.4,12.5 -12,12.5 -6.6,0 -11.9,-5.6 -11.9,-12.5 v -6.8 c 0,-6.9 5.4,-12.5 11.9,-12.5 6.6,0 12,5.6 12,12.5 z"
   id="path14"
   style="fill:#000000;fill-opacity:1" />&#10;				</g>&#10;			</g>&#10;		</g>&#10;	</g>&#10;</g>&#10;</svg>
