<svg width="29" height="28" viewBox="0 0 29 28" fill="none" xmlns="http://www.w3.org/2000/svg">
<g id="Service_Rail">
<g id="Layer_2_00000023993568279598596950000013857681539784050078_">
<g id="Layer_1-2">
<path id="Vector" d="M14.425 2.77586C14.425 3.24521 14.0495 3.62069 13.5802 3.62069C13.1108 3.62069 12.7354 3.24521 12.7354 2.77586C12.7354 2.30651 13.1108 1.93103 13.5802 1.93103C14.0428 1.93103 14.425 2.30651 14.425 2.77586Z" fill="black"/>
<path id="Vector_2" d="M14.9082 2.77586C14.9082 3.24521 15.2904 3.62069 15.753 3.62069C16.2157 3.62069 16.5979 3.2385 16.5979 2.77586C16.5979 2.30651 16.2157 1.93103 15.753 1.93103C15.2837 1.93103 14.9082 2.31321 14.9082 2.77586Z" fill="black"/>
<path id="Vector_3" d="M21.3919 19.9808C21.2712 20.0143 18.4082 20.7586 14.6869 20.7586C11.3814 20.7586 8.09594 20.0143 7.95514 19.9808L7.9082 19.9674V20.0613C7.91491 20.3429 8.02889 20.6111 8.22334 20.8189L9.32966 21.8984C9.53751 22.0862 9.79901 22.2002 10.0806 22.2069H19.253C19.5212 22.2002 19.7827 22.1063 19.9906 21.9387L21.0634 21.0402C21.2846 20.8458 21.412 20.5642 21.4254 20.2758V19.9674L21.3919 19.9808Z" fill="black"/>
<path id="Vector_4" d="M20.9425 25.3918C21.0364 25.5058 21.1772 25.5796 21.3247 25.5863H22.0287C22.1628 25.5863 22.2097 25.4991 22.1293 25.3918L20.339 22.8909C20.2452 22.7769 20.1044 22.7031 19.9569 22.6964H19.2528C19.1187 22.6964 19.0785 22.7836 19.1523 22.8909L19.568 23.4675C19.6484 23.5748 19.6015 23.6619 19.4674 23.6619H9.86586C9.73176 23.6619 9.69153 23.5748 9.76529 23.4675L10.181 22.8909C10.2615 22.7836 10.2145 22.6964 10.0804 22.6964H9.3764C9.22889 22.7031 9.08808 22.7769 8.99421 22.8909L7.20399 25.3918C7.13023 25.4991 7.17046 25.5863 7.30456 25.5863H8.00858C8.15609 25.5796 8.2969 25.5058 8.39077 25.3918L8.80648 24.8085C8.90035 24.6945 9.04115 24.6207 9.18866 24.614H20.1379C20.2854 24.6207 20.4262 24.6945 20.5201 24.8085L20.9425 25.3918Z" fill="black"/>
<path id="Vector_5" d="M7.9082 18.9818V15.7902V7.22799C7.9082 5.83335 9.29613 5.15615 10.4561 4.82761C11.9446 4.40519 13.7549 4.34485 14.7003 4.34485C15.6458 4.34485 17.436 4.40519 18.9111 4.82761C20.0576 5.15615 21.4254 5.84006 21.4254 7.22799V15.9311V18.9684L21.1505 19.0422C21.1237 19.0489 18.2875 19.7931 14.6936 19.7931C11.5021 19.7931 8.20993 19.0489 8.1764 19.0422L7.9082 18.9818ZM10.322 15.9311C9.7856 15.9311 9.35648 16.3669 9.35648 16.8966C9.35648 17.4263 9.7923 17.8621 10.322 17.8621C10.8584 17.8621 11.2875 17.4263 11.2875 16.8966C11.2875 16.3602 10.8517 15.9311 10.322 15.9311ZM18.0461 16.8966C18.0461 17.433 18.482 17.8621 19.0117 17.8621C19.548 17.8621 19.9772 17.4263 19.9772 16.8966C19.9772 16.3602 19.5413 15.9311 19.0117 15.9311C18.4753 15.9311 18.0461 16.3669 18.0461 16.8966ZM19.9571 12.8266V9.07186C19.9571 9.04504 19.9571 9.01151 19.9571 8.98469C19.9638 8.83718 19.9772 8.5891 19.7894 8.38795C19.662 8.26056 19.4944 8.19351 19.3134 8.20021H10.0337C9.85265 8.19351 9.67832 8.26056 9.55092 8.38795C9.34977 8.5891 9.34977 8.84389 9.34977 9.03163V12.8602C9.34977 13.6245 10.1611 14.4425 10.9187 14.4425H18.4149C19.1726 14.4493 19.9571 13.6178 19.9571 12.8266ZM17.5634 6.27588C17.5634 6.00768 17.3488 5.79312 17.0806 5.79312H12.253C11.9848 5.79312 11.7703 6.00768 11.7703 6.27588C11.7703 6.54408 11.9848 6.75864 12.253 6.75864H17.0806C17.3488 6.75864 17.5634 6.54408 17.5634 6.27588Z" fill="black"/>
</g>
</g>
</g>
</svg>
